<svg xmlns="http://www.w3.org/2000/svg" xmlns:xlink="http://www.w3.org/1999/xlink" width="1920" height="1080" viewBox="0 0 1920 1080"><defs><linearGradient id="a" x1="0.169" y1="0.922" x2="0.87" y2="0.094" gradientUnits="objectBoundingBox"><stop offset="0" stop-color="#7cfdc8"/><stop offset="1" stop-color="#d9ff1a" stop-opacity="0.62"/></linearGradient><linearGradient id="c" x1="0.169" y1="0.922" x2="0.87" y2="0.094" gradientUnits="objectBoundingBox"><stop offset="0" stop-color="#f55aff"/><stop offset="1" stop-color="#f10d0d"/></linearGradient><radialGradient id="e" cx="0.263" cy="0.227" r="0.502" gradientTransform="translate(-0.043 0.046) rotate(-5.107)" gradientUnits="objectBoundingBox"><stop offset="0" stop-color="#a5f928" stop-opacity="0.412"/><stop offset="1" stop-color="#99f5ff" stop-opacity="0.529"/></radialGradient><radialGradient id="f" cx="0.74" cy="0.441" r="0.747" gradientTransform="matrix(-0.99, -0.142, 0.142, -0.99, 1.379, 0.89)" gradientUnits="objectBoundingBox"><stop offset="0" stop-color="#5828f9" stop-opacity="0.412"/><stop offset="1" stop-color="#99f5ff" stop-opacity="0.529"/></radialGradient><clipPath id="o"><rect width="1920" height="1080"/></clipPath></defs><g id="n" clip-path="url(#o)"><rect width="1920" height="1080" fill="#fff"/><circle cx="16.5" cy="16.5" r="16.5" transform="translate(93 488)" fill="#ccffd8"/><circle cx="16.5" cy="16.5" r="16.5" transform="translate(675 455)" fill="#ccffd8"/><circle cx="16.5" cy="16.5" r="16.5" transform="translate(360 157)" fill="#ccffd8"/><circle cx="16.5" cy="16.5" r="16.5" transform="translate(1516 244)" fill="#ccffd8"/><rect width="110" height="110" rx="40" transform="translate(378.774 844.763) rotate(-8)" opacity="0.7" fill="url(#a)"/><rect width="158" height="158" rx="40" transform="translate(1082.774 60.763) rotate(-8)" opacity="0.43" fill="url(#a)"/><rect width="158" height="158" rx="27" transform="translate(808.33 628.682) rotate(-34)" opacity="0.13" fill="url(#c)"/><rect width="129" height="129" rx="22" transform="translate(445.727 324.793) rotate(92)" opacity="0.25" fill="url(#c)"/><g transform="translate(-764 -404)" opacity="0.5"><circle cx="148.5" cy="148.5" r="148.5" transform="translate(561 534)" fill="url(#e)"/><circle cx="148.5" cy="148.5" r="148.5" transform="translate(692 532)" fill="#fff"/><ellipse cx="113" cy="112.5" rx="113" ry="112.5" transform="translate(597 570)" fill="#fff"/><circle cx="148.5" cy="148.5" r="148.5" transform="translate(715 722)" fill="url(#f)"/><ellipse cx="113" cy="112.5" rx="113" ry="112.5" transform="translate(751 758)" fill="#fff"/><circle cx="148.5" cy="148.5" r="148.5" transform="translate(624 821)" fill="#fff"/></g><g transform="translate(1164 -304)" opacity="0.5"><circle cx="148.5" cy="148.5" r="148.5" transform="translate(561 534)" fill="url(#e)"/><circle cx="148.5" cy="148.5" r="148.5" transform="translate(692 532)" fill="#fff"/><ellipse cx="113" cy="112.5" rx="113" ry="112.5" transform="translate(597 570)" fill="#fff"/><circle cx="148.5" cy="148.5" r="148.5" transform="translate(715 722)" fill="url(#f)"/><ellipse cx="113" cy="112.5" rx="113" ry="112.5" transform="translate(751 758)" fill="#fff"/><circle cx="148.5" cy="148.5" r="148.5" transform="translate(624 821)" fill="#fff"/></g><g transform="translate(663 -213)" opacity="0.5"><circle cx="148.5" cy="148.5" r="148.5" transform="translate(561 534)" fill="url(#e)"/><circle cx="148.5" cy="148.5" r="148.5" transform="translate(692 532)" fill="#fff"/><ellipse cx="113" cy="112.5" rx="113" ry="112.5" transform="translate(597 570)" fill="#fff"/><circle cx="148.5" cy="148.5" r="148.5" transform="translate(715 722)" fill="url(#f)"/><ellipse cx="113" cy="112.5" rx="113" ry="112.5" transform="translate(751 758)" fill="#fff"/><circle cx="148.5" cy="148.5" r="148.5" transform="translate(624 821)" fill="#fff"/></g><g transform="translate(663 -213)" opacity="0.5"><circle cx="148.5" cy="148.5" r="148.5" transform="translate(561 534)" fill="url(#e)"/><circle cx="148.5" cy="148.5" r="148.5" transform="translate(692 532)" fill="#fff"/><ellipse cx="113" cy="112.5" rx="113" ry="112.5" transform="translate(597 570)" fill="#fff"/><circle cx="148.5" cy="148.5" r="148.5" transform="translate(715 722)" fill="url(#f)"/><ellipse cx="113" cy="112.5" rx="113" ry="112.5" transform="translate(751 758)" fill="#fff"/><circle cx="148.5" cy="148.5" r="148.5" transform="translate(624 821)" fill="#fff"/></g><rect width="36" height="36" rx="18" transform="translate(1354.472 407.461) rotate(-34)" opacity="0.13" fill="url(#c)"/></g></svg>